# xmcd CD database file
#
# Track frame offsets:
#	150
#	20445
#	32311
#	51171
#	69495
#	87115
#	103635
#	124376
#	165959
#	182493
#	196958
#
# Disc length: 2860 seconds
#
# Revision: 0
# Processed by: cddbd v1.5.2PL0 Copyright (c) Steve Scherf et al.
# Submitted via: CDex 1.51
#
DISCID=820b2a0b
DTITLE=Don Ellis - Connection
DYEAR=1972
DGENRE=Jazz
TTITLE0=Put it where you want it
TTITLE1=Alone again (Naturally)
TTITLE2=Superstar
TTITLE3=I feel the earth move
TTITLE4=Theme from "The French Connection"
TTITLE5=Conquistador
TTITLE6=Roundabout
TTITLE7=Chain Reaction
TTITLE8=Goodbye to love
TTITLE9=Lean on me
TTITLE10=Train to get there
EXTD=YEAR: 1972
EXTT0=
EXTT1=
EXTT2=
EXTT3=
EXTT4=
EXTT5=
EXTT6=
EXTT7=
EXTT8=
EXTT9=
EXTT10=
PLAYORDER=
